<svg width="376" height="51" viewBox="0 0 376 51" fill="none" xmlns="http://www.w3.org/2000/svg">
<path d="M92.6427 11.0858C94.4816 12.9869 95.7057 15.3974 96.1557 18.0038C96.6194 20.4318 96.8292 22.9014 96.7817 25.3728C96.8271 27.8459 96.6112 30.317 96.1377 32.7448C95.6806 35.3411 94.4664 37.7444 92.6477 39.6528C90.6688 41.4599 88.1936 42.6323 85.5417 43.0188C83.2549 43.386 80.9391 43.541 78.6237 43.4818C74.4997 43.4818 68.5857 43.4818 64.6067 39.6558C62.6521 37.6603 61.3647 35.1077 60.9217 32.3498C60.5272 30.0461 60.3598 27.7092 60.4217 25.3728C60.3633 22.8969 60.5644 20.4217 61.0217 17.9878C61.4861 15.3732 62.7429 12.9644 64.6217 11.0878C66.595 9.30212 69.0479 8.13336 71.6777 7.72578C73.9768 7.35716 76.3052 7.2035 78.6327 7.26678C82.7577 7.26678 88.6717 7.26678 92.6507 11.0928M104.73 43.0988C104.029 43.1003 103.331 43.0096 102.654 42.8288C102.036 42.669 101.458 42.3852 100.954 41.9948C100.433 41.5603 100.025 41.0075 99.7617 40.3828C99.493 39.7547 99.3569 39.0779 99.3617 38.3948V7.64078H107.813V35.2118V35.3118C107.797 35.4775 107.816 35.6447 107.868 35.8028L107.968 35.8438C108.215 35.9083 108.471 35.937 108.727 35.9288H128.072V43.0988H104.73ZM131.597 7.64078H138.961V43.0988H130.508V7.64078H131.597ZM163.786 7.64078C164.896 7.62092 166.005 7.74154 167.086 7.99978C168.417 8.31515 169.633 8.99727 170.597 9.96878C171.625 11.081 172.325 12.4561 172.62 13.9418C172.891 15.2286 173.018 16.5418 172.999 17.8568C173.026 18.8535 172.939 19.85 172.739 20.8268C172.481 21.9874 171.945 23.0679 171.177 23.9748C170.871 24.348 170.527 24.6876 170.15 24.9878C170.716 25.3119 171.227 25.7229 171.666 26.2058C172.53 27.1785 173.1 28.3772 173.308 29.6618C173.481 30.7282 173.554 31.8087 173.524 32.8888C173.524 35.2608 173.524 38.1478 171.348 40.5968C170.425 41.6763 169.192 42.4447 167.817 42.7968C166.712 43.046 165.58 43.1489 164.449 43.1028H148.029C146.301 43.1218 144.713 43.1388 143.187 41.3938C142.824 40.9755 142.529 40.5032 142.312 39.9938C141.948 39.1438 141.764 38.2274 141.773 37.3028V13.5278C141.772 12.7672 141.883 12.0107 142.104 11.2828C142.3 10.6013 142.63 9.96564 143.075 9.41278C143.665 8.71221 144.448 8.19952 145.326 7.93778C146.007 7.73293 146.715 7.63344 147.426 7.64278H163.782L163.786 7.64078ZM150.227 21.6188H161.309C162.28 21.6188 163.324 21.6188 163.852 20.8848L163.897 20.8208C164.01 20.6601 164.09 20.4781 164.131 20.2858C164.302 19.5848 164.377 18.8639 164.355 18.1428C164.365 17.6337 164.322 17.1248 164.226 16.6248C164.146 16.152 163.929 15.7131 163.602 15.3628C163.335 15.1166 163.003 14.9533 162.646 14.8928C162.187 14.8214 161.723 14.7936 161.26 14.8098H150.992H150.843C150.688 14.7974 150.533 14.8041 150.38 14.8298L150.272 15.0968C150.242 15.257 150.228 15.4198 150.231 15.5828L150.227 21.6188ZM150.227 34.5448C150.215 34.8992 150.239 35.2539 150.297 35.6038L150.342 35.7868C150.695 35.9165 151.074 35.9657 151.449 35.9308H151.549H161.439C161.977 35.9445 162.516 35.8989 163.045 35.7948C163.512 35.7146 163.941 35.4839 164.266 35.1378C164.509 34.7997 164.669 34.4086 164.732 33.9968C164.827 33.4888 164.873 32.9727 164.868 32.4558C164.872 31.9427 164.835 31.4301 164.758 30.9228C164.706 30.4886 164.566 30.0697 164.346 29.6918C164.111 29.4079 163.807 29.1907 163.462 29.0618C162.951 28.8686 162.408 28.7769 161.862 28.7918H150.227V34.5448ZM181.516 43.0988C179.863 43.0988 178.377 43.0988 176.964 41.7458C176.291 41.0939 175.823 40.2598 175.617 39.3458C175.45 38.5983 175.375 37.8334 175.393 37.0678V13.4828C175.393 12.7091 175.515 11.9404 175.755 11.2048C175.974 10.5036 176.333 9.85369 176.809 9.29378L176.822 9.27778C177.484 8.57205 178.343 8.08153 179.288 7.86978C180.051 7.70001 180.833 7.62312 181.615 7.64078H204.052V14.8088H184.985C184.765 14.8028 184.546 14.8206 184.33 14.8618L184.002 15.0048L183.877 15.2478C183.844 15.4339 183.832 15.623 183.839 15.8118V21.4278H203.569V28.5958H183.839V35.3038L183.903 35.6828L183.923 35.7538L183.992 35.8178L184.238 35.8728C184.612 35.917 184.988 35.9347 185.365 35.9258H204.235V43.0958H181.515L181.516 43.0988ZM248.176 11.6848C248.642 10.3402 249.488 9.15938 250.611 8.28478C251.837 7.61416 253.212 7.26202 254.61 7.26062C256.007 7.25922 257.383 7.60861 258.611 8.27678C259.761 9.14232 260.63 10.3273 261.111 11.6838L274.297 43.0988H265.322L261.897 34.6818H247.339L243.965 43.0978H228.997C225.251 39.3978 221.429 35.7208 217.733 31.9818C217.214 31.4624 216.765 30.8783 216.397 30.2438C216.062 29.6894 215.872 29.0598 215.844 28.4128V27.6538C215.833 27.1739 215.932 26.6979 216.133 26.2623C216.335 25.8266 216.634 25.443 217.007 25.1408C217.789 24.5463 218.753 24.2426 219.735 24.2818H226.01C226.503 24.2973 226.996 24.2359 227.471 24.0998C227.901 23.9678 228.271 23.6898 228.518 23.3138C228.73 22.895 228.866 22.4415 228.918 21.9748C229.048 21.0999 229.11 20.2163 229.105 19.3318C229.131 18.4093 229.03 17.4877 228.805 16.5928C228.709 16.1841 228.513 15.806 228.234 15.4928C227.9 15.1859 227.482 14.9851 227.034 14.9158C226.521 14.8332 226.002 14.7997 225.483 14.8158H215.319C215.114 14.8069 214.91 14.822 214.709 14.8608L214.386 15.0538L214.361 15.0758L214.121 15.4208C214.083 15.6466 214.068 15.8759 214.079 16.1048V43.1048H205.625V14.3878C205.601 13.5646 205.675 12.7415 205.845 11.9358C206.073 10.9232 206.592 9.99932 207.339 9.27778C208.027 8.6252 208.871 8.15857 209.79 7.92178C210.54 7.72465 211.314 7.63013 212.09 7.64078H227.874C229.236 7.59059 230.598 7.75562 231.91 8.12978C233.557 8.64289 234.973 9.71759 235.91 11.1668C236.724 12.3774 237.266 13.7498 237.5 15.1898C237.702 16.4795 237.789 17.7846 237.762 19.0898C237.784 20.3937 237.707 21.6974 237.533 22.9898C237.333 24.4325 236.882 25.8292 236.202 27.1168C235.648 28.2086 234.826 29.1416 233.813 29.8278C232.363 30.7304 230.677 31.1783 228.971 31.1138H227.197L236.418 39.6758L248.171 11.6858L248.176 11.6848ZM249.832 28.0368H259.407L254.639 16.1208L249.832 28.0368ZM279.746 43.0998C279.045 43.1016 278.348 43.0098 277.672 42.8268C277.054 42.6695 276.475 42.3866 275.972 41.9958C275.452 41.5609 275.043 41.0083 274.779 40.3838C274.512 39.7552 274.375 39.0788 274.379 38.3958V7.64078H282.832V35.2118V35.3118C282.814 35.4773 282.832 35.6446 282.884 35.8028L282.984 35.8438C283.231 35.908 283.486 35.9366 283.741 35.9288H303.087V43.0988L279.746 43.0998ZM316.497 43.4788C315.259 43.5342 314.024 43.3368 312.865 42.8987C311.706 42.4606 310.649 41.791 309.758 40.9308C307.823 38.9978 307.243 36.3208 307.243 32.5158C307.243 29.4538 307.469 26.0028 309.659 23.6498C310.556 22.7288 311.638 22.0081 312.834 21.5349C314.03 21.0616 315.312 20.8465 316.597 20.9038H325.239V22.4538H317.339C315.663 22.4538 312.665 22.6478 310.793 25.0658C309.246 27.0658 309.117 30.0318 309.117 32.5478C309.117 34.3208 309.117 37.1258 310.599 39.1878C312.499 41.8328 315.792 41.9288 316.853 41.9288H325.592V43.4768H316.497V43.4788ZM345.131 23.1038C347.679 25.6498 347.807 29.5838 347.807 32.1978C347.807 34.8118 347.678 38.7418 345.131 41.2888C342.811 43.6108 339.389 43.7398 336.874 43.7398C334.359 43.7398 330.941 43.6108 328.621 41.2888C326.073 38.7428 325.943 34.8088 325.943 32.1978C325.943 29.5868 326.073 25.6498 328.621 23.1038C330.94 20.7818 334.356 20.6528 336.874 20.6528C339.392 20.6528 342.808 20.7798 345.131 23.1038ZM329.75 40.0268C331.683 42.1908 334.715 42.1908 336.874 42.1908C339.033 42.1908 342.065 42.1908 344.002 40.0268C345.873 37.9318 345.937 34.8038 345.937 32.1938C345.937 29.5838 345.873 26.4518 344.002 24.3578C342.066 22.1968 339.035 22.1968 336.874 22.1968C334.713 22.1968 331.683 22.1968 329.75 24.3578C327.878 26.4528 327.814 29.5808 327.814 32.1938C327.814 34.8068 327.878 37.9318 329.75 40.0268ZM349.773 22.7788C349.759 22.4956 349.804 22.2127 349.906 21.9482C350.008 21.6836 350.165 21.4434 350.365 21.2429C350.566 21.0424 350.806 20.886 351.07 20.7839C351.335 20.6817 351.618 20.636 351.901 20.6498C353.191 20.6498 353.768 21.4868 354.352 22.8728L361.997 41.2568C362.097 41.5138 362.223 41.9638 362.544 41.9638C362.865 41.9638 362.996 41.5138 363.094 41.2568L370.734 22.8728C371.314 21.4868 371.894 20.6498 373.185 20.6498C373.468 20.6362 373.751 20.682 374.015 20.7842C374.28 20.8864 374.52 21.0427 374.72 21.2432C374.921 21.4437 375.077 21.6838 375.179 21.9483C375.282 22.2127 375.327 22.4956 375.314 22.7788V43.4788H373.571V22.7788C373.571 22.3268 373.281 22.1968 373.121 22.1968C372.928 22.1968 372.605 22.5838 372.506 22.8408L364.833 41.2838C364.251 42.6718 363.701 43.7348 362.542 43.7348C361.383 43.7348 360.835 42.6698 360.253 41.2838L352.577 22.8418C352.477 22.5848 352.157 22.1978 351.962 22.1978C351.801 22.1978 351.512 22.3278 351.512 22.7798V43.4798H349.772V22.7798L349.773 22.7788ZM307.952 41.6338C307.951 41.9128 307.868 42.1854 307.713 42.4171C307.558 42.6489 307.337 42.8295 307.079 42.9359C306.821 43.0424 306.538 43.0701 306.264 43.0154C305.991 42.9608 305.739 42.8262 305.542 42.6288C305.345 42.4314 305.211 42.18 305.157 41.9063C305.102 41.6327 305.13 41.3491 305.237 41.0914C305.344 40.8336 305.525 40.6134 305.757 40.4584C305.989 40.3035 306.262 40.2208 306.541 40.2208C306.726 40.2209 306.91 40.2576 307.081 40.3286C307.252 40.3997 307.408 40.5038 307.539 40.6351C307.67 40.7663 307.774 40.922 307.845 41.0934C307.915 41.2647 307.952 41.4484 307.952 41.6338ZM70.8787 33.9748C71.6637 34.9607 72.7651 35.6453 73.9967 35.9128C75.5022 36.2294 77.0402 36.3637 78.5777 36.3128C80.1113 36.3636 81.6453 36.2293 83.1467 35.9128C84.3982 35.6429 85.5212 34.9569 86.3327 33.9668C86.9316 33.1563 87.3503 32.2272 87.5607 31.2418C87.9915 29.3159 88.1859 27.3447 88.1397 25.3718C88.1957 23.3323 87.9965 21.2938 87.5467 19.3038C87.3393 18.3683 86.9275 17.4903 86.3407 16.7328V16.7268C85.518 15.7607 84.3971 15.0961 83.1547 14.8378C81.6519 14.519 80.1163 14.381 78.5807 14.4268C77.0428 14.3769 75.5046 14.5139 73.9997 14.8348C72.7772 15.0988 71.6773 15.7623 70.8737 16.7208C70.2277 17.5881 69.7836 18.5888 69.5737 19.6498C69.1899 21.5289 69.0189 23.4453 69.0637 25.3628C69.0149 27.3403 69.2087 29.3164 69.6407 31.2468C69.8523 32.2278 70.2713 33.1521 70.8697 33.9578L70.8787 33.9748Z" fill="#FFF"/>
<path d="M92.6427 11.0858C94.4816 12.9869 95.7057 15.3974 96.1557 18.0038C96.6194 20.4318 96.8292 22.9014 96.7817 25.3728C96.8271 27.8459 96.6112 30.317 96.1377 32.7448C95.6806 35.3411 94.4664 37.7444 92.6477 39.6528C90.6688 41.4599 88.1936 42.6323 85.5417 43.0188C83.2549 43.386 80.9391 43.541 78.6237 43.4818C74.4997 43.4818 68.5857 43.4818 64.6067 39.6558C62.6521 37.6603 61.3647 35.1077 60.9217 32.3498C60.5272 30.0461 60.3598 27.7092 60.4217 25.3728C60.3633 22.8969 60.5644 20.4217 61.0217 17.9878C61.4861 15.3732 62.7429 12.9644 64.6217 11.0878C66.595 9.30212 69.0479 8.13336 71.6777 7.72578C73.9768 7.35716 76.3052 7.2035 78.6327 7.26678C82.7577 7.26678 88.6717 7.26678 92.6507 11.0928M104.73 43.0988C104.029 43.1003 103.331 43.0096 102.654 42.8288C102.036 42.669 101.458 42.3852 100.954 41.9948C100.433 41.5603 100.025 41.0075 99.7617 40.3828C99.493 39.7547 99.3569 39.0779 99.3617 38.3948V7.64078H107.813V35.2118V35.3118C107.797 35.4775 107.816 35.6447 107.868 35.8028L107.968 35.8438C108.215 35.9083 108.471 35.937 108.727 35.9288H128.072V43.0988H104.73ZM131.597 7.64078H138.961V43.0988H130.508V7.64078H131.597ZM163.786 7.64078C164.896 7.62092 166.005 7.74154 167.086 7.99978C168.417 8.31515 169.633 8.99727 170.597 9.96878C171.625 11.081 172.325 12.4561 172.62 13.9418C172.891 15.2286 173.018 16.5418 172.999 17.8568C173.026 18.8535 172.939 19.85 172.739 20.8268C172.481 21.9874 171.945 23.0679 171.177 23.9748C170.871 24.348 170.527 24.6876 170.15 24.9878C170.716 25.3119 171.227 25.7229 171.666 26.2058C172.53 27.1785 173.1 28.3772 173.308 29.6618C173.481 30.7282 173.554 31.8087 173.524 32.8888C173.524 35.2608 173.524 38.1478 171.348 40.5968C170.425 41.6763 169.192 42.4447 167.817 42.7968C166.712 43.046 165.58 43.1489 164.449 43.1028H148.029C146.301 43.1218 144.713 43.1388 143.187 41.3938C142.824 40.9755 142.529 40.5032 142.312 39.9938C141.948 39.1438 141.764 38.2274 141.773 37.3028V13.5278C141.772 12.7672 141.883 12.0107 142.104 11.2828C142.3 10.6013 142.63 9.96564 143.075 9.41278C143.665 8.71221 144.448 8.19952 145.326 7.93778C146.007 7.73293 146.715 7.63344 147.426 7.64278H163.782L163.786 7.64078ZM150.227 21.6188H161.309C162.28 21.6188 163.324 21.6188 163.852 20.8848L163.897 20.8208C164.01 20.6601 164.09 20.4781 164.131 20.2858C164.302 19.5848 164.377 18.8639 164.355 18.1428C164.365 17.6337 164.322 17.1248 164.226 16.6248C164.146 16.152 163.929 15.7131 163.602 15.3628C163.335 15.1166 163.003 14.9533 162.646 14.8928C162.187 14.8214 161.723 14.7936 161.26 14.8098H150.992H150.843C150.688 14.7974 150.533 14.8041 150.38 14.8298L150.272 15.0968C150.242 15.257 150.228 15.4198 150.231 15.5828L150.227 21.6188ZM150.227 34.5448C150.215 34.8992 150.239 35.2539 150.297 35.6038L150.342 35.7868C150.695 35.9165 151.074 35.9657 151.449 35.9308H151.549H161.439C161.977 35.9445 162.516 35.8989 163.045 35.7948C163.512 35.7146 163.941 35.4839 164.266 35.1378C164.509 34.7997 164.669 34.4086 164.732 33.9968C164.827 33.4888 164.873 32.9727 164.868 32.4558C164.872 31.9427 164.835 31.4301 164.758 30.9228C164.706 30.4886 164.566 30.0697 164.346 29.6918C164.111 29.4079 163.807 29.1907 163.462 29.0618C162.951 28.8686 162.408 28.7769 161.862 28.7918H150.227V34.5448ZM181.516 43.0988C179.863 43.0988 178.377 43.0988 176.964 41.7458C176.291 41.0939 175.823 40.2598 175.617 39.3458C175.45 38.5983 175.375 37.8334 175.393 37.0678V13.4828C175.393 12.7091 175.515 11.9404 175.755 11.2048C175.974 10.5036 176.333 9.85369 176.809 9.29378L176.822 9.27778C177.484 8.57205 178.343 8.08153 179.288 7.86978C180.051 7.70001 180.833 7.62312 181.615 7.64078H204.052V14.8088H184.985C184.765 14.8028 184.546 14.8206 184.33 14.8618L184.002 15.0048L183.877 15.2478C183.844 15.4339 183.832 15.623 183.839 15.8118V21.4278H203.569V28.5958H183.839V35.3038L183.903 35.6828L183.923 35.7538L183.992 35.8178L184.238 35.8728C184.612 35.917 184.988 35.9347 185.365 35.9258H204.235V43.0958H181.515L181.516 43.0988ZM248.176 11.6848C248.642 10.3402 249.488 9.15938 250.611 8.28478C251.837 7.61416 253.212 7.26202 254.61 7.26062C256.007 7.25922 257.383 7.60861 258.611 8.27678C259.761 9.14232 260.63 10.3273 261.111 11.6838L274.297 43.0988H265.322L261.897 34.6818H247.339L243.965 43.0978H228.997C225.251 39.3978 221.429 35.7208 217.733 31.9818C217.214 31.4624 216.765 30.8783 216.397 30.2438C216.062 29.6894 215.872 29.0598 215.844 28.4128V27.6538C215.833 27.1739 215.932 26.6979 216.133 26.2623C216.335 25.8266 216.634 25.443 217.007 25.1408C217.789 24.5463 218.753 24.2426 219.735 24.2818H226.01C226.503 24.2973 226.996 24.2359 227.471 24.0998C227.901 23.9678 228.271 23.6898 228.518 23.3138C228.73 22.895 228.866 22.4415 228.918 21.9748C229.048 21.0999 229.11 20.2163 229.105 19.3318C229.131 18.4093 229.03 17.4877 228.805 16.5928C228.709 16.1841 228.513 15.806 228.234 15.4928C227.9 15.1859 227.482 14.9851 227.034 14.9158C226.521 14.8332 226.002 14.7997 225.483 14.8158H215.319C215.114 14.8069 214.91 14.822 214.709 14.8608L214.386 15.0538L214.361 15.0758L214.121 15.4208C214.083 15.6466 214.068 15.8759 214.079 16.1048V43.1048H205.625V14.3878C205.601 13.5646 205.675 12.7415 205.845 11.9358C206.073 10.9232 206.592 9.99932 207.339 9.27778C208.027 8.6252 208.871 8.15857 209.79 7.92178C210.54 7.72465 211.314 7.63013 212.09 7.64078H227.874C229.236 7.59059 230.598 7.75562 231.91 8.12978C233.557 8.64289 234.973 9.71759 235.91 11.1668C236.724 12.3774 237.266 13.7498 237.5 15.1898C237.702 16.4795 237.789 17.7846 237.762 19.0898C237.784 20.3937 237.707 21.6974 237.533 22.9898C237.333 24.4325 236.882 25.8292 236.202 27.1168C235.648 28.2086 234.826 29.1416 233.813 29.8278C232.363 30.7304 230.677 31.1783 228.971 31.1138H227.197L236.418 39.6758L248.171 11.6858L248.176 11.6848ZM249.832 28.0368H259.407L254.639 16.1208L249.832 28.0368ZM279.746 43.0998C279.045 43.1016 278.348 43.0098 277.672 42.8268C277.054 42.6695 276.475 42.3866 275.972 41.9958C275.452 41.5609 275.043 41.0083 274.779 40.3838C274.512 39.7552 274.375 39.0788 274.379 38.3958V7.64078H282.832V35.2118V35.3118C282.814 35.4773 282.832 35.6446 282.884 35.8028L282.984 35.8438C283.231 35.908 283.486 35.9366 283.741 35.9288H303.087V43.0988L279.746 43.0998ZM316.497 43.4788C315.259 43.5342 314.024 43.3368 312.865 42.8987C311.706 42.4606 310.649 41.791 309.758 40.9308C307.823 38.9978 307.243 36.3208 307.243 32.5158C307.243 29.4538 307.469 26.0028 309.659 23.6498C310.556 22.7288 311.638 22.0081 312.834 21.5349C314.03 21.0616 315.312 20.8465 316.597 20.9038H325.239V22.4538H317.339C315.663 22.4538 312.665 22.6478 310.793 25.0658C309.246 27.0658 309.117 30.0318 309.117 32.5478C309.117 34.3208 309.117 37.1258 310.599 39.1878C312.499 41.8328 315.792 41.9288 316.853 41.9288H325.592V43.4768H316.497V43.4788ZM345.131 23.1038C347.679 25.6498 347.807 29.5838 347.807 32.1978C347.807 34.8118 347.678 38.7418 345.131 41.2888C342.811 43.6108 339.389 43.7398 336.874 43.7398C334.359 43.7398 330.941 43.6108 328.621 41.2888C326.073 38.7428 325.943 34.8088 325.943 32.1978C325.943 29.5868 326.073 25.6498 328.621 23.1038C330.94 20.7818 334.356 20.6528 336.874 20.6528C339.392 20.6528 342.808 20.7798 345.131 23.1038ZM329.75 40.0268C331.683 42.1908 334.715 42.1908 336.874 42.1908C339.033 42.1908 342.065 42.1908 344.002 40.0268C345.873 37.9318 345.937 34.8038 345.937 32.1938C345.937 29.5838 345.873 26.4518 344.002 24.3578C342.066 22.1968 339.035 22.1968 336.874 22.1968C334.713 22.1968 331.683 22.1968 329.75 24.3578C327.878 26.4528 327.814 29.5808 327.814 32.1938C327.814 34.8068 327.878 37.9318 329.75 40.0268ZM349.773 22.7788C349.759 22.4956 349.804 22.2127 349.906 21.9482C350.008 21.6836 350.165 21.4434 350.365 21.2429C350.566 21.0424 350.806 20.886 351.07 20.7839C351.335 20.6817 351.618 20.636 351.901 20.6498C353.191 20.6498 353.768 21.4868 354.352 22.8728L361.997 41.2568C362.097 41.5138 362.223 41.9638 362.544 41.9638C362.865 41.9638 362.996 41.5138 363.094 41.2568L370.734 22.8728C371.314 21.4868 371.894 20.6498 373.185 20.6498C373.468 20.6362 373.751 20.682 374.015 20.7842C374.28 20.8864 374.52 21.0427 374.72 21.2432C374.921 21.4437 375.077 21.6838 375.179 21.9483C375.282 22.2127 375.327 22.4956 375.314 22.7788V43.4788H373.571V22.7788C373.571 22.3268 373.281 22.1968 373.121 22.1968C372.928 22.1968 372.605 22.5838 372.506 22.8408L364.833 41.2838C364.251 42.6718 363.701 43.7348 362.542 43.7348C361.383 43.7348 360.835 42.6698 360.253 41.2838L352.577 22.8418C352.477 22.5848 352.157 22.1978 351.962 22.1978C351.801 22.1978 351.512 22.3278 351.512 22.7798V43.4798H349.772V22.7798L349.773 22.7788ZM307.952 41.6338C307.951 41.9128 307.868 42.1854 307.713 42.4171C307.558 42.6489 307.337 42.8295 307.079 42.9359C306.821 43.0424 306.538 43.0701 306.264 43.0154C305.991 42.9608 305.739 42.8262 305.542 42.6288C305.345 42.4314 305.211 42.18 305.157 41.9063C305.102 41.6327 305.13 41.3491 305.237 41.0914C305.344 40.8336 305.525 40.6134 305.757 40.4584C305.989 40.3035 306.262 40.2208 306.541 40.2208C306.726 40.2209 306.91 40.2576 307.081 40.3286C307.252 40.3997 307.408 40.5038 307.539 40.6351C307.67 40.7663 307.774 40.922 307.845 41.0934C307.915 41.2647 307.952 41.4484 307.952 41.6338ZM70.8787 33.9748C71.6637 34.9607 72.7651 35.6453 73.9967 35.9128C75.5022 36.2294 77.0402 36.3637 78.5777 36.3128C80.1113 36.3636 81.6453 36.2293 83.1467 35.9128C84.3982 35.6429 85.5212 34.9569 86.3327 33.9668C86.9316 33.1563 87.3503 32.2272 87.5607 31.2418C87.9915 29.3159 88.1859 27.3447 88.1397 25.3718C88.1957 23.3323 87.9965 21.2938 87.5467 19.3038C87.3393 18.3683 86.9275 17.4903 86.3407 16.7328V16.7268C85.518 15.7607 84.3971 15.0961 83.1547 14.8378C81.6519 14.519 80.1163 14.381 78.5807 14.4268C77.0428 14.3769 75.5046 14.5139 73.9997 14.8348C72.7772 15.0988 71.6773 15.7623 70.8737 16.7208C70.2277 17.5881 69.7836 18.5888 69.5737 19.6498C69.1899 21.5289 69.0189 23.4453 69.0637 25.3628C69.0149 27.3403 69.2087 29.3164 69.6407 31.2468C69.8523 32.2278 70.2713 33.1521 70.8697 33.9578L70.8787 33.9748Z" fill="#FFF"/>
<path fill-rule="evenodd" clip-rule="evenodd" d="M48.4692 37.4579C46.383 41.3586 43.3147 44.6472 39.5678 46.9984C35.8209 49.3497 31.5251 50.6822 27.1053 50.8641C22.6855 51.0461 18.2948 50.0712 14.3673 48.0359C10.4398 46.0006 7.11159 42.9754 4.71178 39.2594C2.31197 35.5434 0.9237 31.2654 0.68424 26.8483C0.444781 22.4313 1.36243 18.0282 3.34645 14.0746C5.33046 10.1209 8.31212 6.75361 11.9966 4.30565C15.681 1.85769 19.9406 0.413863 24.3542 0.116943L12.3282 34.2549C11.7132 35.9999 12.6382 37.4269 14.3822 37.4269L48.4692 37.4579Z" fill="#FFF"/>
<path fill-rule="evenodd" clip-rule="evenodd" d="M36.6337 2.35791C41.2167 4.45544 45.0724 7.86867 47.7103 12.1635C50.3482 16.4583 51.6492 21.4407 51.4477 26.4769H29.6377C28.3957 26.4859 28.2247 26.1959 28.6687 24.9689L36.6337 2.35791Z" fill="#FFF"/>
</svg>
